<?xml  version="1.0" encoding="UTF-8"?>
<!DOCTYPE svg PUBLIC "-//W3C//DTD SVG 1.0//EN" "http://www.w3.org/TR/2001/REC-SVG-20010904/DTD/svg10.dtd" >
<svg xmlns="http://www.w3.org/2000/svg" >
<metadata>
<version>1.0</version>
<id><![CDATA[Proxima N W01 At X Cd Black]]></id>
<vendor>Monotype Imaging Inc.</vendor>
<credits>
<name>Fonts.com WebFonts</name>
<URL>http://webfonts.fonts.com</URL>
<role>Home of the Web fonts</role>
</credits>
<license>
<URL>http://webfonts.fonts.com/Legal</URL>
</license>
<copyright><![CDATA[Copyright (c) Mark Simonson, 2005. All rights reserved.]]></copyright>
<trademark><![CDATA[Proxima Nova is a trademark of Mark Simonson.]]></trademark>
<licensee>
<name></name>
</licensee>
</metadata>
<defs >
<font horiz-adv-x="423" id="cf37ef0a-9719-4f19-9d99-feaea7770732">
<font-face font-family="" panose-1="2 0 5 6 3 0 0 2 0 4" ascent="741" descent="-259" units-per-em="1000" alphabetic="0">
</font-face>
<missing-glyph horiz-adv-x="0" />

<glyph unicode="&#xA;" />
<glyph unicode="&#xD;" horiz-adv-x="0" />
<glyph unicode=" " horiz-adv-x="150" />
<glyph unicode="!" horiz-adv-x="271" d="M65 235L41 667H230L206 235H65ZM135 -12Q115 -12 98 -5T68 16T47 47T39 84Q39 103 46 120T67 151T98 172T135 180Q154 180 171 173T202 152T223 121T231 84Q231 64 224 47T203 17T172 -4T135 -12Z"  />
<glyph unicode="&quot;" horiz-adv-x="442" d="M87 355Q73 417 62 467Q57 488 53 509T46 548T40 578T38 595Q38 629 62 653T120 677Q154 677 178 653T202 595Q202 591 200 579T194 549T186 510T177 467Q166 417 153 355H87ZM290 355Q276 417 265 467Q260 488 256 509T249 548T243 578T241 595Q241 629 264 653T323 677Q356 677 380 653T404 595Q404 591 402 579T396 549T388 510T379 467Q368 417 355 355H290Z"  />
<glyph unicode="#" horiz-adv-x="487" d="M192 0L231 163H176L139 0H26L64 163H14L37 260H87L121 406H69L91 502H143L181 667H294L256 502H310L347 667H460L422 502H473L452 406H400L365 260H420L397 163H342L305 0H192ZM287 406H233L200 260H253L287 406Z"  />
<glyph unicode="$" horiz-adv-x="435" d="M166 -10Q115 -5 76 12T4 59L75 197Q98 170 130 157T193 144Q216 144 228 156T240 187Q240 208 224 222T184 251T132 281T79 321T39 382T23 471Q23 502 32 533T59 590T103 636T166 667V768H280V675Q318 670 352 655T412 617L348 481Q326 503 301 512T248 522Q226 522 215 510T203 481Q203 462 219 448T259 419T311 387T363 346T403 286T419 200Q419 125 382 72T280 -1V-100H166V-10Z"  />
<glyph unicode="%" horiz-adv-x="604" d="M151 343Q119 343 94 356T50 391T22 444T12 509Q12 544 22 575T50 628T93 664T151 677Q183 677 208 664T252 629T279 575T289 509Q289 474 280 444T252 392T209 356T151 343ZM130 0L414 667H475L190 0H130ZM454 -12Q422 -12 396 1T352 36T325 89T315 154Q315 189 324 220T352 274T396 310T454 323Q486 323 511 310T555 274T582 220T592 154Q592 119 583 89T555 37T512 1T454 -12ZM151 437Q169 437 180 455T191 509Q191 546 180 564T151 583Q133 583 122 565T111 509Q111 473 122 455T151 437ZM454 82Q472 82 483 100T494 154Q494 192 483 210T454 228Q436 228 425 210T414 154Q414 119 425 101T454 82Z"  />
<glyph unicode="&amp;" horiz-adv-x="495" d="M344 0Q339 8 334 15T324 30Q295 10 262 -1T190 -12Q153 -12 122 1T67 39T30 100T16 184Q16 220 25 249T49 301T84 342T125 376Q109 413 99 447T89 509Q89 545 101 576T136 629T187 664T251 677Q284 677 312 665T362 632T396 583T409 522Q409 487 398 461T370 414T330 376T285 343Q292 331 298 320T311 298Q317 287 323 278T335 258Q343 282 349 306T361 351L484 294Q470 249 454 208T415 132Q436 101 458 69T507 0H344ZM227 110Q246 110 263 124Q252 142 241 160T220 196Q212 210 204 225T186 255Q170 228 170 195Q170 180 174 165T186 137T204 118T227 110ZM224 509Q224 495 227 480T236 448Q254 463 265 479T276 517Q276 541 269 553T251 566Q236 566 230 552T224 509Z"  />
<glyph unicode="&apos;" horiz-adv-x="241" d="M87 355Q73 417 62 467Q57 488 53 509T46 548T40 578T38 595Q38 629 62 653T120 677Q154 677 178 653T202 595Q202 591 200 579T194 549T186 510T177 467Q166 417 153 355H87Z"  />
<glyph unicode="(" horiz-adv-x="306" d="M167 -199Q107 -96 77 13T47 243Q47 364 77 473T167 685L284 633Q252 544 235 447T218 243Q218 138 235 40T284 -146L167 -199Z"  />
<glyph unicode=")" horiz-adv-x="306" d="M22 -146Q54 -58 71 40T88 243Q88 349 71 446T22 633L140 685Q200 582 229 473T259 243Q259 122 230 13T140 -199L22 -146Z"  />
<glyph unicode="*" horiz-adv-x="338" d="M132 353L137 460L47 403L11 466L105 515L11 564L47 627L137 570L132 677H206L201 570L290 627L328 564L233 515L328 466L290 403L201 460L206 353H132Z"  />
<glyph unicode="+" horiz-adv-x="388" d="M246 291V153H142V291H29V384H142V514H246V384H359V291H246Z"  />
<glyph unicode="&#x2c;" horiz-adv-x="273" d="M237 62Q237 -1 207 -53T122 -143L56 -90Q68 -84 81 -74T106 -50T127 -23T141 6Q133 2 118 2Q86 2 63 25T40 86Q40 105 47 122T67 152T97 172T133 180Q154 180 172 172T205 149T228 112T237 62Z"  />
<glyph unicode="-" horiz-adv-x="247" d="M30 176V308H217V176H30Z"  />
<glyph unicode="." horiz-adv-x="270" d="M135 -12Q115 -12 98 -5T68 16T48 47T40 84Q40 103 47 120T68 151T98 172T135 180Q154 180 171 173T202 152T223 121T231 84Q231 64 224 47T203 17T172 -4T135 -12Z"  />
<glyph unicode="/" horiz-adv-x="254" d="M0 -20L147 687H254L107 -20H0Z"  />
<glyph unicode="0" horiz-adv-x="495" d="M248 -12Q191 -12 148 16T76 91T33 201T18 333Q18 402 32 464T75 574T147 649T248 677Q305 677 348 650T419 575T462 465T477 333Q477 264 463 202T420 92T348 16T248 -12ZM248 144Q263 144 272 154T288 186T296 245T298 333Q298 385 296 421T288 479T273 511T248 521Q233 521 223 512T208 480T200 421T198 333Q198 281 200 245T207 187T223 154T248 144Z"  />
<glyph unicode="1" horiz-adv-x="405" d="M187 0V442L102 355L2 459L212 667H364V0H187Z"  />
<glyph unicode="2" horiz-adv-x="491" d="M31 0V146Q119 233 170 285T247 369T280 419T287 459Q287 483 272 502T226 521Q195 521 167 505T115 457L9 565Q48 617 103 647T236 677Q287 677 329 662T401 619T447 552T464 464Q464 430 454 399T421 332T361 253T269 154H468V0H31Z"  />
<glyph unicode="3" horiz-adv-x="490" d="M241 -12Q163 -12 104 17T12 94L127 200Q146 174 172 159T233 144Q271 144 285 161T300 201Q300 217 294 228T277 246T253 256T227 259Q214 259 203 259T182 258V415Q188 414 200 414T219 414Q254 414 273 427T293 468Q293 494 277 507T230 521Q204 521 175 509T129 471L20 567Q60 624 117 650T242 677Q290 677 330 666T399 632T445 575T462 494Q462 468 453 443T428 398T390 363T343 344Q372 339 396 325T437 289T463 242T472 186Q472 141 455 104T407 42T334 2T241 -12Z"  />
<glyph unicode="4" horiz-adv-x="495" d="M254 0V120H17V275L227 667H431V274H478V120H431V0H254ZM254 468L159 274H254V468Z"  />
<glyph unicode="5" horiz-adv-x="498" d="M242 -12Q169 -12 113 13T17 94L127 202Q148 175 174 160T230 144Q264 144 282 165T301 218Q301 251 285 271T239 291Q214 291 196 278T164 242L34 271V667H443V513H211V390Q225 413 252 427T312 442Q349 442 379 428T432 386T467 317T480 223Q480 170 464 127T417 53T342 5T242 -12Z"  />
<glyph unicode="6" horiz-adv-x="491" d="M261 -12Q198 -12 152 14T76 87T32 197T18 332Q18 413 37 477T91 585T176 653T286 677Q335 677 377 660T449 613L363 483Q334 521 290 521Q272 521 255 511T225 482T204 436T196 374V369Q211 404 243 423T314 443Q347 443 376 429T426 386T461 317T474 223Q474 169 458 126T412 52T344 5T261 -12ZM250 144Q262 144 271 150T285 167T294 190T297 216Q297 238 293 252T281 276T264 289T247 293Q228 293 216 281T195 250Q196 229 199 210T209 176T225 153T250 144Z"  />
<glyph unicode="7" horiz-adv-x="451" d="M69 0L242 513H14V667H437V545L257 0H69Z"  />
<glyph unicode="8" horiz-adv-x="491" d="M245 -12Q132 -12 75 36T17 174Q17 202 26 229T52 278T89 318T136 344Q89 359 58 400T26 501Q26 548 45 581T94 636T164 667T245 677Q285 677 324 667T395 636T446 582T465 501Q465 441 433 400T354 344Q379 335 400 318T438 279T463 230T473 175Q473 86 415 37T245 -12ZM245 398Q249 400 256 404T272 417T286 436T292 464Q292 492 280 506T245 521Q223 521 211 507T198 464Q198 448 204 437T218 417T234 405T245 398ZM245 144Q265 144 281 157T298 203Q298 222 292 236T276 260T258 275T245 282Q240 281 232 276T215 261T200 237T193 203Q193 171 208 158T245 144Z"  />
<glyph unicode="9" horiz-adv-x="491" d="M205 -11Q157 -11 114 6T42 53L128 183Q157 145 201 145Q217 145 233 153T263 180T286 225T295 291V297Q280 262 248 243T177 223Q145 223 116 237T65 280T30 349T17 443Q17 497 33 540T79 614T147 661T230 678Q293 678 339 651T415 578T459 469T473 334Q473 253 454 189T400 81T315 13T205 -11ZM244 373Q264 373 275 385T296 416Q295 437 292 456T283 490T268 513T243 522Q230 522 221 516T206 499T197 476T194 450Q194 428 198 414T210 390T227 377T244 373Z"  />
<glyph unicode=":" horiz-adv-x="268" d="M135 298Q115 298 98 305T68 326T48 357T40 394Q40 413 47 430T68 461T98 482T135 490Q154 490 171 483T202 462T223 431T231 394Q231 374 224 357T203 327T172 306T135 298ZM135 -12Q115 -12 98 -5T68 16T48 47T40 84Q40 103 47 120T68 151T98 172T135 180Q154 180 171 173T202 152T223 121T231 84Q231 64 224 47T203 17T172 -4T135 -12Z"  />
<glyph unicode=";" horiz-adv-x="271" d="M135 298Q115 298 98 306T68 327T48 357T40 395Q40 414 47 431T68 462T98 482T135 490Q154 490 171 483T202 462T223 432T231 395Q231 375 224 358T203 327T172 306T135 298ZM237 67Q237 4 207 -48T122 -138L56 -85Q68 -79 81 -69T106 -45T127 -18T141 11Q133 7 118 7Q86 7 63 30T40 91Q40 110 47 127T67 157T97 177T133 185Q154 185 172 177T205 154T228 117T237 67Z"  />
<glyph unicode="&lt;" horiz-adv-x="388" d="M29 278V392L359 520V408L135 334L359 262V150L29 278Z"  />
<glyph unicode="=" horiz-adv-x="388" d="M29 380V474H359V380H29ZM29 195V288H359V195H29Z"  />
<glyph unicode="&gt;" horiz-adv-x="388" d="M29 150V262L252 334L29 408V520L359 392V278L29 150Z"  />
<glyph unicode="?" horiz-adv-x="338" d="M103 216Q91 232 86 255T80 308Q80 345 92 370T119 416T146 453T158 491Q158 506 149 516T125 526Q100 526 83 499L13 606Q46 641 85 659T171 677Q249 677 290 636T332 531Q332 492 315 461T278 404T240 352T223 297Q223 277 235 260L103 216ZM170 -12Q150 -12 133 -5T103 16T82 47T74 84Q74 103 81 120T102 151T133 172T170 180Q189 180 206 173T237 152T258 121T266 84Q266 64 259 47T238 17T207 -4T170 -12Z"  />
<glyph unicode="@" horiz-adv-x="670" d="M279 -70Q217 -70 172 -50T96 7T50 97T35 214Q35 296 64 373T143 508T260 602T404 638Q454 638 496 622T569 574T617 499T635 400Q635 338 621 282T582 181T523 111T449 85Q414 85 388 101T353 149L351 159Q331 129 304 107T232 85Q214 85 197 91T165 113T143 153T134 218Q134 269 148 318T188 408T250 472T331 497Q361 497 378 481T404 439L414 485H552L504 256Q503 252 502 243T501 230Q501 210 506 200T528 189Q536 189 546 204T566 246T581 312T588 398Q588 492 539 544T401 596Q333 596 274 563T172 477T103 355T78 217Q78 168 89 124T124 45T187 -9T284 -29Q331 -29 367 -15T442 25L465 -7Q420 -37 377 -53T279 -70ZM311 194Q331 194 342 209T362 239L385 353Q382 366 375 377T354 388Q335 388 321 373T297 337T283 290T278 244Q278 223 284 209T311 194Z"  />
<glyph unicode="A" horiz-adv-x="484" d="M309 0L295 93H188L175 0H-6L140 667H343L490 0H309ZM242 476L209 247H275L242 476Z"  />
<glyph unicode="B" horiz-adv-x="502" d="M41 0V667H299Q347 667 380 652T435 613T465 559T475 497Q475 434 445 395T366 344Q392 340 413 326T451 291T475 241T484 181Q484 145 475 112T444 55T390 15T308 0H41ZM249 415Q295 415 295 464Q295 513 249 513H218V415H249ZM253 154Q276 154 290 166T304 208Q304 234 290 247T253 261H218V154H253Z"  />
<glyph unicode="C" horiz-adv-x="468" d="M262 -12Q199 -12 153 13T77 84T33 193T18 333Q18 409 32 472T77 582T153 653T262 678Q311 678 345 660T401 615T437 555T459 492L320 441Q312 479 300 500T262 522Q225 522 212 471T198 333Q198 247 211 196T262 144Q289 144 302 170T321 237L459 187Q452 157 440 122T405 57T348 8T262 -12Z"  />
<glyph unicode="D" horiz-adv-x="524" d="M41 0V667H247Q316 667 365 641T445 570T491 464T506 333Q506 262 492 201T446 96T366 26T248 0H41ZM247 154Q283 154 304 195T326 333Q326 384 321 418T305 474T280 504T247 513H218V154H247Z"  />
<glyph unicode="E" horiz-adv-x="405" d="M41 0V667H377V513H218V415H370V261H218V154H377V0H41Z"  />
<glyph unicode="F" horiz-adv-x="400" d="M41 0V667H377V513H218V415H370V261H218V0H41Z"  />
<glyph unicode="G" horiz-adv-x="495" d="M256 -12Q196 -12 151 13T77 84T33 193T18 333Q18 410 33 473T78 582T154 653T262 678Q302 678 334 664T392 624T433 564T459 492L320 441Q315 473 302 497T262 522Q250 522 239 514T218 485T204 428T198 333Q198 276 203 239T218 181T238 152T262 144Q276 144 286 152T303 173T313 201T317 231H250V385H481Q481 291 470 218T432 93T363 15T256 -12Z"  />
<glyph unicode="H" horiz-adv-x="532" d="M314 0V266H218V0H41V667H218V420H314V667H490V0H314Z"  />
<glyph unicode="I" horiz-adv-x="259" d="M41 0V667H218V0H41Z"  />
<glyph unicode="J" horiz-adv-x="375" d="M121 -12Q92 -12 63 -7T9 15L49 160Q59 152 72 148T99 144Q125 144 142 158T159 201V667H336V192Q336 138 321 100T277 37T209 0T121 -12Z"  />
<glyph unicode="K" horiz-adv-x="524" d="M331 0L256 220L218 138V0H41V667H218V398L326 667H518L362 356L529 0H331Z"  />
<glyph unicode="L" horiz-adv-x="396" d="M41 0V667H218V154H377V0H41Z"  />
<glyph unicode="M" horiz-adv-x="675" d="M459 0V321L365 0H310L218 321V0H41V667H260L337 399L418 667H633V0H459Z"  />
<glyph unicode="N" horiz-adv-x="532" d="M326 0L218 278V0H41V667H218L314 407V667H490V0H326Z"  />
<glyph unicode="O" horiz-adv-x="522" d="M261 -12Q199 -12 153 13T77 84T33 193T18 333Q18 409 32 472T77 581T153 652T261 678Q323 678 369 653T445 581T489 472T504 333Q504 257 490 194T445 85T369 14T261 -12ZM261 144Q296 144 310 196T324 333Q324 419 310 470T261 522Q226 522 212 471T198 333Q198 248 212 196T261 144Z"  />
<glyph unicode="P" horiz-adv-x="496" d="M41 0V667H264Q320 667 361 649T428 600T468 529T481 444Q481 400 468 360T429 289T361 240T264 222H218V0H41ZM244 376Q270 376 286 394T302 445Q302 477 286 495T244 513H218V376H244Z"  />
<glyph unicode="Q" horiz-adv-x="523" d="M261 -12Q199 -12 153 13T77 84T33 193T18 333Q18 409 32 472T77 581T153 652T261 678Q323 678 369 653T445 581T489 472T504 333Q504 250 487 183T434 70L457 11L338 -36L325 -3Q295 -12 261 -12ZM268 144L235 230L321 263Q324 294 324 333Q324 419 310 470T261 522Q226 522 212 471T198 333Q198 248 212 196T261 144H268Z"  />
<glyph unicode="R" horiz-adv-x="511" d="M298 0L241 222H218V0H41V667H273Q318 667 356 651T422 605T465 537T481 451Q481 410 474 380T455 327T429 289T402 265L487 0H298ZM244 376Q270 376 286 394T302 444Q302 477 286 495T244 513H218V376H244Z"  />
<glyph unicode="S" horiz-adv-x="437" d="M205 -12Q139 -12 91 6T4 59L75 197Q98 170 130 157T193 144Q216 144 228 156T240 187Q240 208 224 222T184 251T132 281T79 321T39 382T23 471Q23 510 36 547T77 613T146 660T241 678Q292 678 336 662T412 617L348 481Q326 503 301 512T248 522Q226 522 215 510T203 481Q203 462 219 448T259 419T311 387T363 346T403 286T419 200Q419 153 404 114T361 47T294 4T205 -12Z"  />
<glyph unicode="T" horiz-adv-x="406" d="M115 0V513H18V667H388V513H292V0H115Z"  />
<glyph unicode="U" horiz-adv-x="532" d="M266 -12Q225 -12 185 1T112 41T61 112T41 214V667H218V204Q218 170 230 156T266 142Q288 142 301 156T314 204V667H491V214Q491 155 472 112T420 42T348 1T266 -12Z"  />
<glyph unicode="V" horiz-adv-x="484" d="M140 0L-6 667H175L242 224L309 667H490L343 0H140Z"  />
<glyph unicode="W" horiz-adv-x="684" d="M382 0L342 346L301 0H126L4 667H182L222 305L275 667H409L463 305L502 667H680L558 0H382Z"  />
<glyph unicode="X" horiz-adv-x="509" d="M321 0L254 191L188 0H-6L152 341L2 667H197L254 487L312 667H506L356 342L515 0H321Z"  />
<glyph unicode="Y" horiz-adv-x="489" d="M156 0V269L-7 667H179L244 435L310 667H496L333 269V0H156Z"  />
<glyph unicode="Z" horiz-adv-x="412" d="M26 0V147L179 513H26V667H379V527L222 154H386V0H26Z"  />
<glyph unicode="[" horiz-adv-x="227" d="M36 -190V678H210V577H146V-89H210V-190H36Z"  />
<glyph unicode="\" horiz-adv-x="254" d="M0 687H108L255 -20H147L0 687Z"  />
<glyph unicode="]" horiz-adv-x="227" d="M18 -190V-89H81V577H18V678H192V-190H18Z"  />
<glyph unicode="^" horiz-adv-x="344" d="M216 333L171 543L128 333H19L116 667H229L325 333H216Z"  />
<glyph unicode="_" horiz-adv-x="279" d="M-3 -141V-40H282V-141H-3Z"  />
<glyph unicode="`" horiz-adv-x="209" d="M112 556L0 700H129L209 556H112Z"  />
<glyph unicode="a" horiz-adv-x="462" d="M269 0V54Q252 19 225 4T171 -12Q96 -12 56 53T16 242Q16 360 56 427T171 495Q198 495 226 480T269 429V483H426V0H269ZM228 127Q240 127 250 136T269 163V321Q253 355 228 355Q199 355 188 324T177 242Q177 190 188 159T228 127Z"  />
<glyph unicode="b" horiz-adv-x="462" d="M193 163Q200 146 210 137T234 127Q263 127 274 158T285 242Q285 293 274 324T234 356Q207 356 193 321V163ZM35 0V667H193V429Q208 465 236 480T291 495Q365 495 405 428T446 242Q446 119 406 54T291 -12Q264 -12 237 3T193 54V0H35Z"  />
<glyph unicode="c" horiz-adv-x="371" d="M226 -12Q178 -12 139 6T73 58T31 138T16 242Q16 299 31 345T73 425T139 476T226 495Q272 495 308 482T361 453L316 330Q302 343 289 349T259 356Q221 356 199 325T177 242Q177 190 199 159T259 127Q276 127 289 133T316 153L361 30Q344 13 308 1T226 -12Z"  />
<glyph unicode="d" horiz-adv-x="462" d="M269 0V54Q252 19 225 4T171 -12Q96 -12 56 53T16 242Q16 360 56 427T171 495Q198 495 226 480T269 429V667H426V0H269ZM228 127Q240 127 250 136T269 163V322Q253 356 228 356Q199 356 188 325T177 242Q177 190 188 159T228 127Z"  />
<glyph unicode="e" horiz-adv-x="435" d="M233 -12Q182 -12 142 6T74 58T31 138T16 242Q16 294 29 340T69 421T135 475T225 495Q276 495 313 477T374 425T410 346T422 245V190H167Q168 160 187 138T251 115Q271 115 292 125T332 152L401 62Q368 25 323 7T233 -12ZM273 297Q273 310 271 322T263 345T247 361T220 368Q204 368 194 362T177 345T169 323T167 297H273Z"  />
<glyph unicode="f" horiz-adv-x="275" d="M53 0V346H11V483H53V502Q53 588 90 632T195 677Q223 677 242 675T281 664L261 540Q256 544 243 544Q229 544 220 534T210 502V483H266V346H210V0H53Z"  />
<glyph unicode="g" horiz-adv-x="462" d="M209 -196Q155 -196 114 -184T40 -141L88 -18Q111 -39 136 -51T191 -63Q224 -63 246 -41T269 32V81Q252 46 225 30T171 14Q96 14 56 73T16 254Q16 373 56 434T171 495Q198 495 226 480T269 429V483H426V32Q426 -36 407 -80T357 -150T288 -186T209 -196ZM228 153Q254 153 269 187V322Q254 356 228 356Q199 356 188 331T177 254Q177 203 188 178T228 153Z"  />
<glyph unicode="h" horiz-adv-x="462" d="M269 0V319Q269 356 240 356Q223 356 211 341T193 309V0H35V667H193V425Q200 438 213 450T242 473T277 489T313 495Q375 495 401 464T427 382V0H269Z"  />
<glyph unicode="i" horiz-adv-x="228" d="M114 525Q76 525 50 551T24 615Q24 653 50 679T114 706Q152 706 178 680T204 615Q204 577 178 551T114 525ZM35 0V483H193V0H35Z"  />
<glyph unicode="j" horiz-adv-x="228" d="M114 525Q76 525 50 551T24 615Q24 653 50 679T114 706Q152 706 178 680T204 615Q204 577 178 551T114 525ZM17 -196Q0 -196 -16 -192T-45 -180L-19 -56Q-10 -63 4 -63Q35 -63 35 -13V483H193V-13Q193 -56 184 -90T154 -147T100 -183T17 -196Z"  />
<glyph unicode="k" horiz-adv-x="445" d="M277 0L226 166L193 102V0H35V667H193V305L267 483H441L333 270L450 0H277Z"  />
<glyph unicode="l" horiz-adv-x="258" d="M170 -12Q96 -12 66 23T35 130V667H193V164Q193 127 215 127Q230 127 238 135L263 10Q249 0 225 -6T170 -12Z"  />
<glyph unicode="m" horiz-adv-x="696" d="M503 0V318Q503 356 474 356Q456 356 444 340T427 309V0H269V318Q269 335 263 345T240 356Q222 356 210 340T193 309V0H35V483H193V425Q198 436 210 448T239 471T275 488T313 495Q351 495 382 477T422 417Q428 431 441 445T471 470T507 488T547 495Q595 495 627 469T660 380V0H503Z"  />
<glyph unicode="n" horiz-adv-x="462" d="M269 0V318Q269 356 240 356Q223 356 211 341T193 309V0H35V483H193V425Q200 438 213 450T242 473T277 489T313 495Q344 495 365 487T400 463T420 426T427 380V0H269Z"  />
<glyph unicode="o" horiz-adv-x="451" d="M225 -12Q172 -12 133 8T67 64T29 145T16 242Q16 293 28 338T67 419T132 474T225 495Q279 495 318 475T384 419T423 339T436 242Q436 191 423 145T384 64T319 9T225 -12ZM225 127Q254 127 264 158T274 242Q274 294 264 325T225 356Q198 356 188 325T178 242Q178 189 188 158T225 127Z"  />
<glyph unicode="p" horiz-adv-x="462" d="M291 -12Q264 -12 236 3T193 54V-184H35V483H193V429Q210 464 237 479T291 495Q365 495 405 430T446 241Q446 123 406 56T291 -12ZM234 127Q263 127 274 158T285 241Q285 293 274 324T234 356Q206 356 193 323V161Q207 127 234 127Z"  />
<glyph unicode="q" horiz-adv-x="462" d="M228 127Q254 127 269 161V323Q254 356 228 356Q199 356 188 325T177 241Q177 190 188 159T228 127ZM171 -12Q96 -12 56 55T16 241Q16 364 56 429T171 495Q198 495 225 480T269 429V483H426V-184H269V54Q254 19 226 4T171 -12Z"  />
<glyph unicode="r" horiz-adv-x="309" d="M35 0V483H193V425Q199 440 211 452T239 475T269 490T298 496V345Q292 347 286 348T272 349Q253 349 230 338T193 306V0H35Z"  />
<glyph unicode="s" horiz-adv-x="382" d="M186 -12Q122 -12 76 7T4 53L64 162Q84 142 113 127T171 111Q221 111 221 142Q221 154 207 161T170 175T122 192T74 220T37 267T22 341Q22 371 33 399T66 448T123 482T203 495Q251 495 294 478T370 435L310 329Q297 342 269 357T207 372Q190 372 179 365T167 346Q167 335 182 328T220 314T269 296T318 268T356 220T371 147Q371 112 358 83T320 33T262 0T186 -12Z"  />
<glyph unicode="t" horiz-adv-x="282" d="M187 -12Q114 -12 84 23T53 130V346H11V483H53V615H210V483H266V346H210V164Q210 127 232 127Q239 127 245 129T255 135L280 10Q266 0 242 -6T187 -12Z"  />
<glyph unicode="u" horiz-adv-x="462" d="M269 0V56Q262 43 249 31T220 9T185 -6T149 -12Q87 -12 61 19T35 101V483H193V164Q193 127 222 127Q239 127 251 141T269 172V483H427V0H269Z"  />
<glyph unicode="v" horiz-adv-x="435" d="M134 0L-6 483H160L217 198L275 483H442L301 0H134Z"  />
<glyph unicode="w" horiz-adv-x="674" d="M394 0L337 269L280 0H114L-3 483H159L210 210L259 483H405L464 210L514 483H677L560 0H394Z"  />
<glyph unicode="x" horiz-adv-x="418" d="M256 0L209 129L161 0H-5L110 242L-1 483H164L208 356L253 483H418L307 242L423 0H256Z"  />
<glyph unicode="y" horiz-adv-x="462" d="M213 -196Q99 -196 44 -141L93 -18Q115 -41 142 -52T195 -63Q233 -63 251 -39T269 32V81Q262 68 249 56T220 35T185 20T149 14Q87 14 61 45T35 126V483H193V189Q193 153 222 153Q239 153 251 166T269 197V483H427V32Q427 -77 375 -136T213 -196Z"  />
<glyph unicode="z" horiz-adv-x="368" d="M19 0V116L154 346H19V483H345V372L208 137H349V0H19Z"  />
<glyph unicode="{" horiz-adv-x="237" d="M194 -190Q167 -190 142 -180T97 -153T67 -112T55 -59V137Q55 165 42 183T3 202V286Q29 286 42 304T55 351V546Q55 574 66 598T97 640T141 668T194 678H220V577H194Q182 577 174 569T166 546V334Q166 302 156 279T120 244Q145 233 155 210T166 154V-59Q166 -72 174 -80T194 -89H220V-190H194Z"  />
<glyph unicode="|" horiz-adv-x="184" d="M41 -20V687H143V-20H41Z"  />
<glyph unicode="}" horiz-adv-x="237" d="M17 -89H43Q55 -89 63 -81T72 -59V154Q72 186 82 209T118 244Q93 255 83 278T72 334V546Q72 560 64 568T43 577H17V678H43Q70 678 95 668T140 641T170 599T182 546V351Q182 323 195 305T234 286V202Q208 202 195 184T182 137V-59Q182 -88 171 -112T140 -153T96 -180T43 -190H17V-89Z"  />
<glyph unicode="~" horiz-adv-x="437" d="M412 659Q410 622 406 578T388 496T349 432T279 406Q251 406 234 418T206 449T190 490T181 530T173 561T160 574Q153 574 149 567T141 540T135 489T130 406L25 413Q26 450 31 494T50 576T90 641T160 667Q188 667 205 655T233 623T249 583T258 542T266 511T279 498Q286 498 290 505T298 532T303 583T309 667L412 659Z"  />
<glyph unicode="&#xA0;" horiz-adv-x="150" />
<glyph unicode="&#xA1;" horiz-adv-x="271" d="M65 248H206L230 -184H41L65 248ZM40 399Q40 418 47 435T68 466T98 487T136 495Q155 495 172 488T203 467T224 436T232 399Q232 379 225 362T204 331T173 310T136 302Q116 302 99 309T68 330T48 361T40 399Z"  />
<glyph unicode="&#xA2;" horiz-adv-x="371" d="M155 0Q89 23 53 87T16 242Q16 333 52 396T155 483V565H267V492Q299 487 323 476T361 453L316 330Q302 343 289 349T259 356Q221 356 199 325T177 242Q177 190 199 159T259 127Q276 127 289 133T316 153L361 30Q347 17 323 7T267 -9V-100H155V0Z"  />
<glyph unicode="&#xA3;" horiz-adv-x="469" d="M30 378H61Q53 398 48 420T43 470Q43 516 62 554T113 620T184 662T264 677Q299 677 331 668T389 641T432 594T456 528L314 471Q309 503 301 519T274 535Q257 535 246 518T234 468Q234 438 239 418T250 378H317V281H270V268Q270 255 267 240T257 209T242 180T223 157Q245 165 259 165Q275 165 286 162T307 155T327 148T352 144Q376 144 393 151T422 169L463 29Q448 13 413 1T336 -12Q307 -12 287 -6T250 9T218 23T183 30Q140 30 91 -7L45 110Q74 130 94 159T115 217Q115 234 112 250T103 281H30V378Z"  />
<glyph unicode="&#xA4;" horiz-adv-x="506" d="M253 222Q310 222 341 262T372 365Q372 395 364 421T341 467T304 498T253 509Q224 509 202 498T165 468T141 422T133 365Q133 334 141 308T164 263T202 233T253 222ZM19 168L88 239Q50 294 50 365Q50 436 88 489L19 560L64 603L131 534Q155 552 185 563T253 574Q289 574 320 563T375 534L442 603L487 560L418 489Q455 435 455 365Q455 330 445 298T417 240L487 168L442 125L374 194Q325 157 253 157Q181 157 132 194L64 125L19 168Z"  />
<glyph unicode="&#xA5;" horiz-adv-x="489" d="M156 0V110H28V204H156V269H28V362H118L-7 667H179L244 435L310 667H496L371 362H458V269H333V204H458V110H333V0H156Z"  />
<glyph unicode="&#xA6;" horiz-adv-x="184" d="M41 -20V296H143V-20H41ZM41 371V687H143V371H41Z"  />
<glyph unicode="&#xA7;" horiz-adv-x="384" d="M371 329Q371 293 354 259T301 202Q338 179 354 149T371 78Q371 44 357 15T318 -35T260 -69T186 -81Q128 -81 81 -64T4 -16L64 88Q71 80 83 71T109 53T139 40T171 34Q199 34 210 46T221 74Q221 91 207 101T170 120T122 140T74 168T37 212T22 280Q22 327 45 357T98 403Q56 427 39 460T22 531Q22 563 34 590T69 636T123 666T192 677Q227 677 254 672T302 659T338 639T368 614L310 520Q260 568 211 568Q190 568 179 559T167 533Q167 518 182 508T220 489T269 469T318 441T356 397T371 329ZM234 289Q234 340 195 358Q175 352 167 339T159 311Q159 290 169 274T209 245Q222 253 228 264T234 289Z"  />
<glyph unicode="&#xA8;" horiz-adv-x="291" d="M319 615Q319 581 296 558T238 535Q205 535 182 558T158 615Q158 649 181 672T238 695Q272 695 295 672T319 615ZM133 615Q133 582 110 559T53 535Q20 535 -3 558T-27 615Q-27 648 -4 671T53 695Q87 695 110 672T133 615Z"  />
<glyph unicode="&#xA9;" horiz-adv-x="778" d="M734 334Q734 263 707 200T633 90T523 16T389 -11Q318 -11 255 16T145 90T71 200T44 334Q44 405 71 468T145 578T255 652T389 679Q460 679 523 652T633 578T707 468T734 334ZM694 334Q694 397 670 452T605 549T508 615T389 639Q326 639 271 615T174 550T108 453T84 334Q84 271 108 216T173 119T270 53T389 29Q452 29 507 53T604 118T670 215T694 334ZM547 193Q520 161 482 143T396 124Q353 124 315 140T249 184T205 250T188 335Q188 381 204 419T249 485T315 528T396 544Q443 544 481 526T545 477L510 442Q490 468 461 484T396 500Q364 500 336 488T286 454T252 402T239 335Q239 299 251 269T285 216T335 181T396 168Q432 168 461 184T511 227L547 193Z"  />
<glyph unicode="&#xAA;" horiz-adv-x="322" d="M181 326V356Q173 343 154 331T106 318Q88 318 71 324T41 342T20 374T12 420Q12 472 40 497T106 522Q135 522 154 511T181 488V515Q181 538 169 551T133 565Q116 565 97 555T64 530L25 602Q37 615 54 623T89 637T125 645T158 648Q186 648 210 642T253 621T282 586T293 534V326H181ZM151 390Q173 390 181 410V438Q172 458 151 458Q138 458 130 450T122 424Q122 406 130 398T151 390Z"  />
<glyph unicode="&#xAB;" horiz-adv-x="446" d="M298 63L208 243L298 420H416L326 243L416 63H298ZM120 63L30 243L120 420H237L147 243L237 63H120Z"  />
<glyph unicode="&#xAC;" horiz-adv-x="388" d="M359 195H262V380H29V474H359V195Z"  />
<glyph unicode="&#xAD;" horiz-adv-x="247" d="M30 176V308H217V176H30Z"  />
<glyph unicode="&#xAE;" horiz-adv-x="494" d="M459 465Q459 421 443 383T398 315T330 270T247 253Q203 253 165 269T97 315T52 382T35 465Q35 509 51 548T97 615T164 660T247 677Q291 677 330 661T397 616T442 548T459 465ZM425 465Q425 502 411 534T373 591T317 629T247 643Q210 643 178 629T121 591T83 535T69 465Q69 428 83 396T121 339T177 301T247 287Q284 287 316 301T373 339T411 395T425 465ZM304 343L241 439H201V343H165V586H264Q295 586 320 566T345 512Q345 492 338 478T320 456T299 444T283 440L348 343H304ZM308 512Q308 532 294 544T264 556H201V470H264Q280 470 294 481T308 512Z"  />
<glyph unicode="&#xAF;" horiz-adv-x="268" d="M0 591V678H268V591H0Z"  />
<glyph unicode="&#xB0;" horiz-adv-x="322" d="M304 534Q304 504 293 478T263 433T217 402T161 391Q131 391 105 402T60 432T29 478T18 534Q18 564 29 590T59 635T105 666T161 677Q191 677 217 666T262 636T293 590T304 534ZM223 534Q223 560 205 578T161 596Q135 596 118 578T100 534Q100 508 117 491T161 473Q186 473 204 490T223 534Z"  />
<glyph unicode="&#xB1;" horiz-adv-x="388" d="M246 291V153H142V291H29V384H142V514H246V384H359V291H246ZM29 9V103H359V9H29Z"  />
<glyph unicode="&#xB2;" horiz-adv-x="322" d="M25 421V505Q82 554 115 585T166 636T189 670T194 696Q194 713 183 724T151 735Q131 735 112 723T78 690L10 760Q37 792 74 809T159 827Q227 827 268 795T309 700Q309 680 302 660T278 619T235 571T170 513H311V421H25Z"  />
<glyph unicode="&#xB3;" horiz-adv-x="322" d="M309 533Q309 506 298 484T267 447T220 423T159 414Q108 414 70 431T10 477L80 548Q94 528 113 517T154 506Q177 506 187 517T197 541Q197 563 182 570T147 578Q138 578 130 578T117 577V668Q121 667 129 667T143 667Q192 667 192 701Q192 718 181 726T151 735Q134 735 114 727T82 698L14 761Q40 795 77 811T159 827Q224 827 263 800T303 717Q303 685 282 659T227 627Q263 622 286 595T309 533Z"  />
<glyph unicode="&#xB4;" horiz-adv-x="209" d="M97 556H0L80 700H209L97 556Z"  />
<glyph unicode="&#xB5;" horiz-adv-x="462" d="M35 -184V483H193V164Q193 127 222 127Q239 127 251 141T269 172V483H427V0H269V56Q259 37 239 17T193 -12V-184H35Z"  />
<glyph unicode="&#xB6;" horiz-adv-x="449" d="M344 -100V595H272V-100H199V323Q163 323 132 336T78 373T41 428T27 495Q27 531 40 562T77 616T132 653T199 667H417V-100H344Z"  />
<glyph unicode="&#xB7;" horiz-adv-x="270" d="M231 244Q231 224 224 207T203 177T172 156T135 148Q115 148 98 155T68 176T47 207T39 244Q39 264 46 281T67 312T98 333T135 341Q154 341 171 334T202 313T223 282T231 244Z"  />
<glyph unicode="&#xB8;" horiz-adv-x="199" d="M95 -198Q68 -198 43 -189T0 -165L27 -108Q42 -121 59 -128T90 -136Q106 -136 115 -129T125 -108Q125 -100 120 -94T107 -88Q94 -88 84 -100L31 -70L61 11H134L108 -49Q116 -44 122 -42T137 -40Q163 -40 181 -59T199 -111Q199 -153 170 -175T95 -198Z"  />
<glyph unicode="&#xB9;" horiz-adv-x="273" d="M122 421V673L69 620L3 688L139 821H239V421H122Z"  />
<glyph unicode="&#xBA;" horiz-adv-x="327" d="M163 318Q127 318 100 331T54 368T26 420T16 483Q16 516 25 546T53 598T99 634T163 648Q200 648 228 635T274 599T302 546T311 483Q311 450 302 421T275 368T228 332T163 318ZM163 407Q184 407 190 426T196 483Q196 520 190 539T163 558Q144 558 138 539T131 483Q131 446 137 427T163 407Z"  />
<glyph unicode="&#xBB;" horiz-adv-x="446" d="M147 63H30L120 243L30 420H147L237 243L147 63ZM326 63H208L298 243L208 420H326L416 243L326 63Z"  />
<glyph unicode="&#xBC;" horiz-adv-x="720" d="M249 0H189L473 667H534L249 0ZM679 77V0H562V77H408V166L539 400H679V168H710V77H679ZM562 277L505 168H562V277ZM122 267V519L69 466L3 534L139 667H239V267H122Z"  />
<glyph unicode="&#xBD;" horiz-adv-x="758" d="M249 0H189L473 667H534L249 0ZM462 0V84Q519 133 552 164T603 215T626 249T631 275Q631 292 620 303T588 314Q568 314 549 302T515 269L447 339Q474 371 511 388T596 406Q664 406 705 374T746 279Q746 259 739 239T715 198T672 150T607 92H748V0H462ZM122 267V519L69 466L3 534L139 667H239V267H122Z"  />
<glyph unicode="&#xBE;" horiz-adv-x="756" d="M285 0H225L509 667H570L285 0ZM715 77V0H598V77H444V166L575 400H715V168H746V77H715ZM598 277L541 168H598V277ZM309 379Q309 352 298 330T267 293T220 269T159 260Q108 260 70 277T10 323L80 394Q94 374 113 363T154 352Q177 352 187 363T197 387Q197 409 182 416T147 424Q138 424 130 424T117 423V514Q121 513 129 513T143 513Q192 513 192 547Q192 564 181 572T151 581Q134 581 114 573T82 544L14 607Q40 641 77 657T159 673Q224 673 263 646T303 563Q303 531 282 505T227 473Q263 468 286 441T309 379Z"  />
<glyph unicode="&#xBF;" horiz-adv-x="304" d="M235 267Q258 233 258 175Q258 137 246 112T219 67T192 30T180 -9Q180 -23 189 -33T213 -44Q237 -44 255 -16L325 -123Q258 -195 166 -195Q88 -195 47 -154T6 -49Q6 -9 23 21T60 79T97 131T114 185Q114 195 111 205T103 223L235 267ZM167 495Q186 495 203 488T234 467T255 436T263 399Q263 379 256 362T235 332T204 311T167 303Q147 303 130 310T100 331T80 362T72 399Q72 418 79 435T100 466T130 487T167 495Z"  />
<glyph unicode="&#xC0;" horiz-adv-x="484" d="M222 728L110 872H239L319 728H222ZM309 0L295 93H188L175 0H-6L140 667H343L490 0H309ZM242 476L209 247H275L242 476Z"  />
<glyph unicode="&#xC1;" horiz-adv-x="484" d="M263 728H166L246 872H375L263 728ZM309 0L295 93H188L175 0H-6L140 667H343L490 0H309ZM242 476L209 247H275L242 476Z"  />
<glyph unicode="&#xC2;" horiz-adv-x="484" d="M289 728L242 807L197 728H113L173 872H311L373 728H289ZM309 0L295 93H188L175 0H-6L140 667H343L490 0H309ZM242 476L209 247H275L242 476Z"  />
<glyph unicode="&#xC3;" horiz-adv-x="484" d="M289 726Q270 726 258 734T237 753T221 771T203 780Q192 780 186 769T179 732H100Q100 793 126 829T197 866Q216 866 228 858T249 840T265 822T283 813Q294 813 300 824T307 860H386Q386 800 360 763T289 726ZM309 0L295 93H188L175 0H-6L140 667H343L490 0H309ZM242 476L209 247H275L242 476Z"  />
<glyph unicode="&#xC4;" horiz-adv-x="484" d="M415 790Q415 756 392 733T334 710Q301 710 278 733T254 790Q254 824 277 847T334 870Q368 870 391 847T415 790ZM229 790Q229 757 206 734T149 710Q116 710 93 733T69 790Q69 823 92 846T149 870Q183 870 206 847T229 790ZM309 0L295 93H188L175 0H-6L140 667H343L490 0H309ZM242 476L209 247H275L242 476Z"  />
<glyph unicode="&#xC5;" horiz-adv-x="484" d="M243 693Q223 693 206 700T176 721T156 751T148 788Q148 807 155 824T176 854T206 874T243 882Q282 882 309 855T336 788Q336 768 329 751T309 721T279 701T243 693ZM243 757Q256 757 264 766T273 788Q273 801 265 810T243 819Q230 819 221 810T212 788Q212 775 221 766T243 757ZM309 0L295 93H188L175 0H-6L140 667H343L490 0H309ZM242 476L209 247H275L242 476Z"  />
<glyph unicode="&#xC6;" horiz-adv-x="659" d="M305 0V93H202L176 0H-4L228 667H640V513H481V415H633V261H481V154H640V0H305ZM305 476L243 247H305V476Z"  />
<glyph unicode="&#xC7;" horiz-adv-x="468" d="M258 -194Q231 -194 206 -185T163 -161L190 -104Q205 -117 222 -124T253 -132Q269 -132 278 -125T288 -104Q288 -96 283 -90T270 -84Q257 -84 247 -96L194 -66L215 -8Q164 1 127 29T66 102T30 205T18 333Q18 409 32 472T77 582T153 653T262 678Q311 678 345 660T401 615T437 555T459 492L320 441Q312 479 300 500T262 522Q225 522 212 471T198 333Q198 247 211 196T262 144Q289 144 302 170T321 237L459 187Q452 158 441 126T410 65T360 15T286 -10L271 -45Q279 -40 285 -38T300 -36Q326 -36 344 -55T362 -107Q362 -149 333 -171T258 -194Z"  />
<glyph unicode="&#xC8;" horiz-adv-x="405" d="M191 728L79 872H208L288 728H191ZM41 0V667H377V513H218V415H370V261H218V154H377V0H41Z"  />
<glyph unicode="&#xC9;" horiz-adv-x="405" d="M235 728H138L218 872H347L235 728ZM41 0V667H377V513H218V415H370V261H218V154H377V0H41Z"  />
<glyph unicode="&#xCA;" horiz-adv-x="405" d="M255 728L208 807L163 728H79L139 872H277L339 728H255ZM41 0V667H377V513H218V415H370V261H218V154H377V0H41Z"  />
<glyph unicode="&#xCB;" horiz-adv-x="405" d="M385 790Q385 756 362 733T304 710Q271 710 248 733T224 790Q224 824 247 847T304 870Q338 870 361 847T385 790ZM199 790Q199 757 176 734T119 710Q86 710 63 733T39 790Q39 823 62 846T119 870Q153 870 176 847T199 790ZM41 0V667H377V513H218V415H370V261H218V154H377V0H41Z"  />
<glyph unicode="&#xCC;" horiz-adv-x="259" d="M108 728L-4 872H125L205 728H108ZM41 0V667H218V0H41Z"  />
<glyph unicode="&#xCD;" horiz-adv-x="259" d="M152 728H55L135 872H264L152 728ZM41 0V667H218V0H41Z"  />
<glyph unicode="&#xCE;" horiz-adv-x="259" d="M175 728L128 807L83 728H-1L59 872H197L259 728H175ZM41 0V667H218V0H41Z"  />
<glyph unicode="&#xCF;" horiz-adv-x="259" d="M304 790Q304 756 281 733T223 710Q190 710 167 733T143 790Q143 824 166 847T223 870Q257 870 280 847T304 790ZM118 790Q118 757 95 734T38 710Q5 710 -18 733T-42 790Q-42 823 -19 846T38 870Q72 870 95 847T118 790ZM41 0V667H218V0H41Z"  />
<glyph unicode="&#xD0;" horiz-adv-x="550" d="M67 0V264H11V400H67V667H273Q342 667 391 641T471 570T517 464T532 333Q532 262 518 201T472 96T392 26T274 0H67ZM244 264V154H273Q309 154 330 195T352 333Q352 384 347 418T331 474T306 504T273 513H244V400H299V264H244Z"  />
<glyph unicode="&#xD1;" horiz-adv-x="532" d="M313 726Q294 726 282 734T261 753T245 771T227 780Q216 780 210 769T203 732H124Q124 793 150 829T221 866Q240 866 252 858T273 840T289 822T307 813Q318 813 324 824T331 860H410Q410 800 384 763T313 726ZM326 0L218 278V0H41V667H218L314 407V667H490V0H326Z"  />
<glyph unicode="&#xD2;" horiz-adv-x="522" d="M240 728L128 872H257L337 728H240ZM261 -12Q199 -12 153 13T77 84T33 193T18 333Q18 409 32 472T77 581T153 652T261 678Q323 678 369 653T445 581T489 472T504 333Q504 257 490 194T445 85T369 14T261 -12ZM261 144Q296 144 310 196T324 333Q324 419 310 470T261 522Q226 522 212 471T198 333Q198 248 212 196T261 144Z"  />
<glyph unicode="&#xD3;" horiz-adv-x="522" d="M282 728H185L265 872H394L282 728ZM261 -12Q199 -12 153 13T77 84T33 193T18 333Q18 409 32 472T77 581T153 652T261 678Q323 678 369 653T445 581T489 472T504 333Q504 257 490 194T445 85T369 14T261 -12ZM261 144Q296 144 310 196T324 333Q324 419 310 470T261 522Q226 522 212 471T198 333Q198 248 212 196T261 144Z"  />
<glyph unicode="&#xD4;" horiz-adv-x="522" d="M308 728L261 807L216 728H132L192 872H330L392 728H308ZM261 -12Q199 -12 153 13T77 84T33 193T18 333Q18 409 32 472T77 581T153 652T261 678Q323 678 369 653T445 581T489 472T504 333Q504 257 490 194T445 85T369 14T261 -12ZM261 144Q296 144 310 196T324 333Q324 419 310 470T261 522Q226 522 212 471T198 333Q198 248 212 196T261 144Z"  />
<glyph unicode="&#xD5;" horiz-adv-x="522" d="M308 726Q289 726 277 734T256 753T240 771T222 780Q211 780 205 769T198 732H119Q119 793 145 829T216 866Q235 866 247 858T268 840T284 822T302 813Q313 813 319 824T326 860H405Q405 800 379 763T308 726ZM261 -12Q199 -12 153 13T77 84T33 193T18 333Q18 409 32 472T77 581T153 652T261 678Q323 678 369 653T445 581T489 472T504 333Q504 257 490 194T445 85T369 14T261 -12ZM261 144Q296 144 310 196T324 333Q324 419 310 470T261 522Q226 522 212 471T198 333Q198 248 212 196T261 144Z"  />
<glyph unicode="&#xD6;" horiz-adv-x="522" d="M435 790Q435 756 412 733T354 710Q321 710 298 733T274 790Q274 824 297 847T354 870Q388 870 411 847T435 790ZM249 790Q249 757 226 734T169 710Q136 710 113 733T89 790Q89 823 112 846T169 870Q203 870 226 847T249 790ZM261 -12Q199 -12 153 13T77 84T33 193T18 333Q18 409 32 472T77 581T153 652T261 678Q323 678 369 653T445 581T489 472T504 333Q504 257 490 194T445 85T369 14T261 -12ZM261 144Q296 144 310 196T324 333Q324 419 310 470T261 522Q226 522 212 471T198 333Q198 248 212 196T261 144Z"  />
<glyph unicode="&#xD7;" horiz-adv-x="388" d="M194 268L100 174L33 240L128 334L33 428L100 494L194 400L289 494L355 428L261 334L355 240L289 174L194 268Z"  />
<glyph unicode="&#xD8;" horiz-adv-x="522" d="M261 -12Q190 -12 139 22L127 0H32L78 84Q47 130 33 193T18 333Q18 409 32 472T77 581T153 652T261 678Q332 678 383 644L396 667H491L444 582Q475 536 489 473T504 333Q504 257 490 194T445 85T369 14T261 -12ZM198 305L301 493Q286 522 261 522Q226 522 212 471T198 333V305ZM261 144Q296 144 310 196T324 333Q324 340 324 346T323 360L221 172Q235 144 261 144Z"  />
<glyph unicode="&#xD9;" horiz-adv-x="532" d="M247 728L135 872H264L344 728H247ZM266 -12Q225 -12 185 1T112 41T61 112T41 214V667H218V204Q218 170 230 156T266 142Q288 142 301 156T314 204V667H491V214Q491 155 472 112T420 42T348 1T266 -12Z"  />
<glyph unicode="&#xDA;" horiz-adv-x="532" d="M288 728H191L271 872H400L288 728ZM266 -12Q225 -12 185 1T112 41T61 112T41 214V667H218V204Q218 170 230 156T266 142Q288 142 301 156T314 204V667H491V214Q491 155 472 112T420 42T348 1T266 -12Z"  />
<glyph unicode="&#xDB;" horiz-adv-x="532" d="M314 728L267 807L222 728H138L198 872H336L398 728H314ZM266 -12Q225 -12 185 1T112 41T61 112T41 214V667H218V204Q218 170 230 156T266 142Q288 142 301 156T314 204V667H491V214Q491 155 472 112T420 42T348 1T266 -12Z"  />
<glyph unicode="&#xDC;" horiz-adv-x="532" d="M439 790Q439 756 416 733T358 710Q325 710 302 733T278 790Q278 824 301 847T358 870Q392 870 415 847T439 790ZM253 790Q253 757 230 734T173 710Q140 710 117 733T93 790Q93 823 116 846T173 870Q207 870 230 847T253 790ZM266 -12Q225 -12 185 1T112 41T61 112T41 214V667H218V204Q218 170 230 156T266 142Q288 142 301 156T314 204V667H491V214Q491 155 472 112T420 42T348 1T266 -12Z"  />
<glyph unicode="&#xDD;" horiz-adv-x="489" d="M266 728H169L249 872H378L266 728ZM156 0V269L-7 667H179L244 435L310 667H496L333 269V0H156Z"  />
<glyph unicode="&#xDE;" horiz-adv-x="496" d="M41 0V667H218V566H264Q320 566 361 548T428 499T468 428T481 343Q481 299 468 259T429 188T361 139T264 121H218V0H41ZM244 275Q270 275 286 292T302 343Q302 375 286 393T244 412H218V275H244Z"  />
<glyph unicode="&#xDF;" horiz-adv-x="581" d="M570 147Q570 118 558 90T524 39T469 2T396 -12Q339 -12 295 3T224 44L276 157Q290 141 315 127T362 113Q403 113 403 143Q403 155 391 164T361 182T321 202T281 230T250 272T238 333Q238 369 251 391T281 429T312 459T326 494Q326 513 309 525T265 538Q235 538 215 521T195 461V0H37V461Q37 504 52 543T97 612T169 659T265 677Q308 677 347 665T417 630T466 577T485 513Q485 472 471 447T438 404T406 375T391 347Q391 336 404 329T437 315T480 297T523 268T556 220T570 147Z"  />
<glyph unicode="&#xE0;" horiz-adv-x="462" d="M208 556L96 700H225L305 556H208ZM269 0V54Q252 19 225 4T171 -12Q96 -12 56 53T16 242Q16 360 56 427T171 495Q198 495 226 480T269 429V483H426V0H269ZM228 127Q240 127 250 136T269 163V321Q253 355 228 355Q199 355 188 324T177 242Q177 190 188 159T228 127Z"  />
<glyph unicode="&#xE1;" horiz-adv-x="462" d="M250 556H153L233 700H362L250 556ZM269 0V54Q252 19 225 4T171 -12Q96 -12 56 53T16 242Q16 360 56 427T171 495Q198 495 226 480T269 429V483H426V0H269ZM228 127Q240 127 250 136T269 163V321Q253 355 228 355Q199 355 188 324T177 242Q177 190 188 159T228 127Z"  />
<glyph unicode="&#xE2;" horiz-adv-x="462" d="M277 556L230 635L185 556H101L161 700H299L361 556H277ZM269 0V54Q252 19 225 4T171 -12Q96 -12 56 53T16 242Q16 360 56 427T171 495Q198 495 226 480T269 429V483H426V0H269ZM228 127Q240 127 250 136T269 163V321Q253 355 228 355Q199 355 188 324T177 242Q177 190 188 159T228 127Z"  />
<glyph unicode="&#xE3;" horiz-adv-x="462" d="M277 554Q258 554 246 562T225 581T209 599T191 608Q180 608 174 597T167 560H88Q88 621 114 657T185 694Q204 694 216 686T237 668T253 650T271 641Q282 641 288 652T295 688H374Q374 628 348 591T277 554ZM269 0V54Q252 19 225 4T171 -12Q96 -12 56 53T16 242Q16 360 56 427T171 495Q198 495 226 480T269 429V483H426V0H269ZM228 127Q240 127 250 136T269 163V321Q253 355 228 355Q199 355 188 324T177 242Q177 190 188 159T228 127Z"  />
<glyph unicode="&#xE4;" horiz-adv-x="462" d="M405 615Q405 581 382 558T324 535Q291 535 268 558T244 615Q244 649 267 672T324 695Q358 695 381 672T405 615ZM219 615Q219 582 196 559T139 535Q106 535 83 558T59 615Q59 648 82 671T139 695Q173 695 196 672T219 615ZM269 0V54Q252 19 225 4T171 -12Q96 -12 56 53T16 242Q16 360 56 427T171 495Q198 495 226 480T269 429V483H426V0H269ZM228 127Q240 127 250 136T269 163V321Q253 355 228 355Q199 355 188 324T177 242Q177 190 188 159T228 127Z"  />
<glyph unicode="&#xE5;" horiz-adv-x="462" d="M231 544Q211 544 194 551T164 572T144 602T136 639Q136 658 143 675T164 705T194 725T231 733Q270 733 297 706T324 639Q324 619 317 602T297 572T267 552T231 544ZM231 608Q244 608 252 617T261 639Q261 652 253 661T231 670Q218 670 209 661T200 639Q200 626 209 617T231 608ZM269 0V54Q252 19 225 4T171 -12Q96 -12 56 53T16 242Q16 360 56 427T171 495Q198 495 226 480T269 429V483H426V0H269ZM228 127Q240 127 250 136T269 163V321Q253 355 228 355Q199 355 188 324T177 242Q177 190 188 159T228 127Z"  />
<glyph unicode="&#xE6;" horiz-adv-x="695" d="M269 0V54Q252 19 225 4T171 -12Q96 -12 56 53T16 242Q16 360 56 427T171 495Q198 495 226 480T269 429V483H426V433Q438 462 460 478T521 495Q563 495 593 477T643 425T672 346T682 245V190H426V187Q428 158 447 139T510 119Q531 119 552 128T591 155L660 54Q635 19 605 4T539 -12Q494 -12 467 6T426 61V0H269ZM228 127Q240 127 250 136T269 163V321Q253 355 228 355Q199 355 188 324T177 242Q177 190 188 159T228 127ZM532 297Q532 310 530 322T522 345T506 361T480 368Q464 368 454 362T437 345T429 323T426 297H532Z"  />
<glyph unicode="&#xE7;" horiz-adv-x="371" d="M226 -196Q199 -196 174 -187T131 -163L158 -106Q173 -119 190 -126T221 -134Q237 -134 246 -127T256 -106Q256 -98 251 -92T238 -86Q225 -86 215 -98L162 -68L184 -8Q145 -1 114 20T61 74T28 149T16 242Q16 299 31 345T73 425T139 476T226 495Q272 495 308 482T361 453L316 330Q302 343 289 349T259 356Q221 356 199 325T177 242Q177 190 199 159T259 127Q276 127 289 133T316 153L361 30Q347 16 319 5T255 -10L239 -47Q247 -42 253 -40T268 -38Q294 -38 312 -57T330 -109Q330 -151 301 -173T226 -196Z"  />
<glyph unicode="&#xE8;" horiz-adv-x="435" d="M233 -12Q182 -12 142 6T74 58T31 138T16 242Q16 294 29 340T69 421T135 475T225 495Q276 495 313 477T374 425T410 346T422 245V190H167Q168 160 187 138T251 115Q271 115 292 125T332 152L401 62Q368 25 323 7T233 -12ZM273 297Q273 310 271 322T263 345T247 361T220 368Q204 368 194 362T177 345T169 323T167 297H273ZM205 556L93 700H222L302 556H205Z"  />
<glyph unicode="&#xE9;" horiz-adv-x="435" d="M233 -12Q182 -12 142 6T74 58T31 138T16 242Q16 294 29 340T69 421T135 475T225 495Q276 495 313 477T374 425T410 346T422 245V190H167Q168 160 187 138T251 115Q271 115 292 125T332 152L401 62Q368 25 323 7T233 -12ZM273 297Q273 310 271 322T263 345T247 361T220 368Q204 368 194 362T177 345T169 323T167 297H273ZM249 556H152L232 700H361L249 556Z"  />
<glyph unicode="&#xEA;" horiz-adv-x="435" d="M233 -12Q182 -12 142 6T74 58T31 138T16 242Q16 294 29 340T69 421T135 475T225 495Q276 495 313 477T374 425T410 346T422 245V190H167Q168 160 187 138T251 115Q271 115 292 125T332 152L401 62Q368 25 323 7T233 -12ZM273 297Q273 310 271 322T263 345T247 361T220 368Q204 368 194 362T177 345T169 323T167 297H273ZM268 556L221 635L176 556H92L152 700H290L352 556H268Z"  />
<glyph unicode="&#xEB;" horiz-adv-x="435" d="M233 -12Q182 -12 142 6T74 58T31 138T16 242Q16 294 29 340T69 421T135 475T225 495Q276 495 313 477T374 425T410 346T422 245V190H167Q168 160 187 138T251 115Q271 115 292 125T332 152L401 62Q368 25 323 7T233 -12ZM273 297Q273 310 271 322T263 345T247 361T220 368Q204 368 194 362T177 345T169 323T167 297H273ZM394 615Q394 581 371 558T313 535Q280 535 257 558T233 615Q233 649 256 672T313 695Q347 695 370 672T394 615ZM208 615Q208 582 185 559T128 535Q95 535 72 558T48 615Q48 648 71 671T128 695Q162 695 185 672T208 615Z"  />
<glyph unicode="&#xEC;" horiz-adv-x="228" d="M93 556L-19 700H110L190 556H93ZM35 0V483H193V0H35Z"  />
<glyph unicode="&#xED;" horiz-adv-x="228" d="M135 556H38L118 700H247L135 556ZM35 0V483H193V0H35Z"  />
<glyph unicode="&#xEE;" horiz-adv-x="228" d="M161 556L114 635L69 556H-15L45 700H183L245 556H161ZM35 0V483H193V0H35Z"  />
<glyph unicode="&#xEF;" horiz-adv-x="228" d="M287 615Q287 581 264 558T206 535Q173 535 150 558T126 615Q126 649 149 672T206 695Q240 695 263 672T287 615ZM101 615Q101 582 78 559T21 535Q-12 535 -35 558T-59 615Q-59 648 -36 671T21 695Q55 695 78 672T101 615ZM35 0V483H193V0H35Z"  />
<glyph unicode="&#xF0;" horiz-adv-x="451" d="M122 552L213 592Q205 609 197 624T180 653L317 715Q326 699 334 684T351 652L411 678L440 610L381 583Q407 514 421 439T436 285Q436 144 384 66T225 -12Q172 -12 133 7T67 58T29 132T16 220Q16 266 27 308T58 381T108 431T176 450Q199 450 216 443T245 425T265 401T279 375Q270 446 242 522L154 483L122 552ZM225 127Q252 127 263 152T274 219Q274 260 263 285T225 311Q199 311 189 286T178 219Q178 178 188 153T225 127Z"  />
<glyph unicode="&#xF1;" horiz-adv-x="462" d="M269 0V318Q269 356 240 356Q223 356 211 341T193 309V0H35V483H193V425Q200 438 213 450T242 473T277 489T313 495Q344 495 365 487T400 463T420 426T427 380V0H269ZM278 554Q259 554 247 562T226 581T210 599T192 608Q181 608 175 597T168 560H89Q89 621 115 657T186 694Q205 694 217 686T238 668T254 650T272 641Q283 641 289 652T296 688H375Q375 628 349 591T278 554Z"  />
<glyph unicode="&#xF2;" horiz-adv-x="451" d="M225 -12Q172 -12 133 8T67 64T29 145T16 242Q16 293 28 338T67 419T132 474T225 495Q279 495 318 475T384 419T423 339T436 242Q436 191 423 145T384 64T319 9T225 -12ZM225 127Q254 127 264 158T274 242Q274 294 264 325T225 356Q198 356 188 325T178 242Q178 189 188 158T225 127ZM205 556L93 700H222L302 556H205Z"  />
<glyph unicode="&#xF3;" horiz-adv-x="451" d="M225 -12Q172 -12 133 8T67 64T29 145T16 242Q16 293 28 338T67 419T132 474T225 495Q279 495 318 475T384 419T423 339T436 242Q436 191 423 145T384 64T319 9T225 -12ZM225 127Q254 127 264 158T274 242Q274 294 264 325T225 356Q198 356 188 325T178 242Q178 189 188 158T225 127ZM248 556H151L231 700H360L248 556Z"  />
<glyph unicode="&#xF4;" horiz-adv-x="451" d="M225 -12Q172 -12 133 8T67 64T29 145T16 242Q16 293 28 338T67 419T132 474T225 495Q279 495 318 475T384 419T423 339T436 242Q436 191 423 145T384 64T319 9T225 -12ZM225 127Q254 127 264 158T274 242Q274 294 264 325T225 356Q198 356 188 325T178 242Q178 189 188 158T225 127ZM273 556L226 635L181 556H97L157 700H295L357 556H273Z"  />
<glyph unicode="&#xF5;" horiz-adv-x="451" d="M225 -12Q172 -12 133 8T67 64T29 145T16 242Q16 293 28 338T67 419T132 474T225 495Q279 495 318 475T384 419T423 339T436 242Q436 191 423 145T384 64T319 9T225 -12ZM225 127Q254 127 264 158T274 242Q274 294 264 325T225 356Q198 356 188 325T178 242Q178 189 188 158T225 127ZM272 554Q253 554 241 562T220 581T204 599T186 608Q175 608 169 597T162 560H83Q83 621 109 657T180 694Q199 694 211 686T232 668T248 650T266 641Q277 641 283 652T290 688H369Q369 628 343 591T272 554Z"  />
<glyph unicode="&#xF6;" horiz-adv-x="451" d="M225 -12Q172 -12 133 8T67 64T29 145T16 242Q16 293 28 338T67 419T132 474T225 495Q279 495 318 475T384 419T423 339T436 242Q436 191 423 145T384 64T319 9T225 -12ZM225 127Q254 127 264 158T274 242Q274 294 264 325T225 356Q198 356 188 325T178 242Q178 189 188 158T225 127ZM399 615Q399 581 376 558T318 535Q285 535 262 558T238 615Q238 649 261 672T318 695Q352 695 375 672T399 615ZM213 615Q213 582 190 559T133 535Q100 535 77 558T53 615Q53 648 76 671T133 695Q167 695 190 672T213 615Z"  />
<glyph unicode="&#xF7;" horiz-adv-x="374" d="M257 485Q257 456 237 436T187 415Q158 415 138 435T118 485Q118 514 138 534T187 554Q216 554 236 534T257 485ZM29 291V384H345V291H29ZM257 190Q257 161 237 141T187 120Q158 120 138 140T118 190Q118 219 138 239T187 259Q216 259 236 239T257 190Z"  />
<glyph unicode="&#xF8;" horiz-adv-x="451" d="M21 0L66 66Q40 101 28 146T16 242Q16 293 28 338T67 419T132 474T225 495Q258 495 285 487T336 464L349 483H430L385 417Q411 382 423 337T436 242Q436 191 423 145T384 64T319 9T225 -12Q192 -12 165 -4T115 18L103 0H21ZM178 231L254 342Q243 356 225 356Q198 356 188 325T178 242V231ZM225 127Q254 127 264 158T274 242V252L198 140Q208 127 225 127Z"  />
<glyph unicode="&#xF9;" horiz-adv-x="462" d="M269 0V56Q262 43 249 31T220 9T185 -6T149 -12Q87 -12 61 19T35 101V483H193V164Q193 127 222 127Q239 127 251 141T269 172V483H427V0H269ZM210 556L98 700H227L307 556H210Z"  />
<glyph unicode="&#xFA;" horiz-adv-x="462" d="M269 0V56Q262 43 249 31T220 9T185 -6T149 -12Q87 -12 61 19T35 101V483H193V164Q193 127 222 127Q239 127 251 141T269 172V483H427V0H269ZM253 556H156L236 700H365L253 556Z"  />
<glyph unicode="&#xFB;" horiz-adv-x="462" d="M269 0V56Q262 43 249 31T220 9T185 -6T149 -12Q87 -12 61 19T35 101V483H193V164Q193 127 222 127Q239 127 251 141T269 172V483H427V0H269ZM278 556L231 635L186 556H102L162 700H300L362 556H278Z"  />
<glyph unicode="&#xFC;" horiz-adv-x="462" d="M269 0V56Q262 43 249 31T220 9T185 -6T149 -12Q87 -12 61 19T35 101V483H193V164Q193 127 222 127Q239 127 251 141T269 172V483H427V0H269ZM405 615Q405 581 382 558T324 535Q291 535 268 558T244 615Q244 649 267 672T324 695Q358 695 381 672T405 615ZM219 615Q219 582 196 559T139 535Q106 535 83 558T59 615Q59 648 82 671T139 695Q173 695 196 672T219 615Z"  />
<glyph unicode="&#xFD;" horiz-adv-x="462" d="M253 556H156L236 700H365L253 556ZM213 -196Q99 -196 44 -141L93 -18Q115 -41 142 -52T195 -63Q233 -63 251 -39T269 32V81Q262 68 249 56T220 35T185 20T149 14Q87 14 61 45T35 126V483H193V189Q193 153 222 153Q239 153 251 166T269 197V483H427V32Q427 -77 375 -136T213 -196Z"  />
<glyph unicode="&#xFE;" horiz-adv-x="462" d="M291 -12Q264 -12 236 3T193 53V-184H35V667H193V430Q210 465 236 480T291 495Q365 495 405 430T446 241Q446 123 406 56T291 -12ZM234 127Q263 127 274 158T285 241Q285 293 274 324T234 356Q206 356 193 323V161Q207 127 234 127Z"  />
<glyph unicode="&#xFF;" horiz-adv-x="462" d="M405 615Q405 581 382 558T324 535Q291 535 268 558T244 615Q244 649 267 672T324 695Q358 695 381 672T405 615ZM219 615Q219 582 196 559T139 535Q106 535 83 558T59 615Q59 648 82 671T139 695Q173 695 196 672T219 615ZM213 -196Q99 -196 44 -141L93 -18Q115 -41 142 -52T195 -63Q233 -63 251 -39T269 32V81Q262 68 249 56T220 35T185 20T149 14Q87 14 61 45T35 126V483H193V189Q193 153 222 153Q239 153 251 166T269 197V483H427V32Q427 -77 375 -136T213 -196Z"  />
<glyph unicode="&#x152;" horiz-adv-x="671" d="M317 0V34Q303 13 276 1T222 -12Q169 -12 131 13T68 84T30 193T18 333Q18 409 30 472T67 580T131 651T222 677Q248 677 275 665T317 633V667H653V513H493V415H646V261H493V154H653V0H317ZM317 463Q308 495 293 508T262 521Q244 521 232 508T212 470T201 411T198 333Q198 291 201 256T211 196T231 158T262 144Q277 144 292 158T317 204V463Z"  />
<glyph unicode="&#x153;" horiz-adv-x="693" d="M425 190Q427 160 445 138T509 115Q529 115 550 125T590 152L659 62Q626 25 581 7T491 -12Q443 -12 412 5T355 55Q307 -12 225 -12Q172 -12 133 8T67 64T29 145T16 242Q16 293 28 338T67 419T132 474T225 495Q308 495 355 429Q403 495 483 495Q534 495 571 476T632 424T668 344T680 242V190H425ZM531 297Q531 309 529 322T521 345T505 361T478 368Q462 368 452 362T435 345T427 322T425 297H531ZM274 242Q274 294 264 325T225 356Q197 356 188 325T178 242Q178 189 187 158T225 127Q254 127 264 158T274 242Z"  />
<glyph unicode="&#x160;" horiz-adv-x="435" d="M175 728L112 872H196L244 793L288 872H372L313 728H175ZM205 -12Q139 -12 91 6T4 59L75 197Q98 170 130 157T193 144Q216 144 228 156T240 187Q240 208 224 222T184 251T132 281T79 321T39 382T23 471Q23 510 36 547T77 613T146 660T241 678Q292 678 336 662T412 617L348 481Q326 503 301 512T248 522Q226 522 215 510T203 481Q203 462 219 448T259 419T311 387T363 346T403 286T419 200Q419 153 404 114T361 47T294 4T205 -12Z"  />
<glyph unicode="&#x161;" horiz-adv-x="382" d="M186 -12Q122 -12 76 7T4 53L64 162Q84 142 113 127T171 111Q221 111 221 142Q221 154 207 161T170 175T122 192T74 220T37 267T22 341Q22 371 33 399T66 448T123 482T203 495Q251 495 294 478T370 435L310 329Q297 342 269 357T207 372Q190 372 179 365T167 346Q167 335 182 328T220 314T269 296T318 268T356 220T371 147Q371 112 358 83T320 33T262 0T186 -12ZM129 556L66 700H150L198 621L242 700H326L267 556H129Z"  />
<glyph unicode="&#x178;" horiz-adv-x="489" d="M418 790Q418 756 395 733T337 710Q304 710 281 733T257 790Q257 824 280 847T337 870Q371 870 394 847T418 790ZM232 790Q232 757 209 734T152 710Q119 710 96 733T72 790Q72 823 95 846T152 870Q186 870 209 847T232 790ZM156 0V269L-7 667H179L244 435L310 667H496L333 269V0H156Z"  />
<glyph unicode="&#x17D;" horiz-adv-x="412" d="M139 728L76 872H160L208 793L252 872H336L277 728H139ZM26 0V147L179 513H26V667H379V527L222 154H386V0H26Z"  />
<glyph unicode="&#x17E;" horiz-adv-x="368" d="M19 0V116L154 346H19V483H345V372L208 137H349V0H19ZM114 556L51 700H135L183 621L227 700H311L252 556H114Z"  />
<glyph unicode="&#x192;" horiz-adv-x="431" d="M5 -161L90 230H53V367H121L155 525Q163 559 181 587T225 635T282 666T345 677Q367 677 393 673T441 655L399 513Q388 523 371 523Q354 523 343 511T326 477L302 367H369V230H271L184 -161H5Z"  />
<glyph unicode="&#x2C6;" horiz-adv-x="260" d="M176 556L129 635L84 556H0L60 700H198L260 556H176Z"  />
<glyph unicode="&#x2DC;" horiz-adv-x="286" d="M189 554Q170 554 158 562T137 581T121 599T103 608Q92 608 86 597T79 560H0Q0 621 26 657T97 694Q116 694 128 686T149 668T165 650T183 641Q194 641 200 652T207 688H286Q286 628 260 591T189 554Z"  />
<glyph unicode="&#x2013;" horiz-adv-x="460" d="M30 176V308H430V176H30Z"  />
<glyph unicode="&#x2014;" horiz-adv-x="640" d="M30 176V308H610V176H30Z"  />
<glyph unicode="&#x2018;" horiz-adv-x="273" d="M33 474Q33 536 64 588T149 678L214 625Q202 619 189 609T164 585T143 558T129 530Q132 531 138 532T152 533Q185 533 208 510T231 449Q231 429 224 412T203 383T174 363T138 355Q117 355 98 363T65 386T42 424T33 474Z"  />
<glyph unicode="&#x2019;" horiz-adv-x="273" d="M237 559Q237 496 207 444T122 354L56 407Q68 413 81 423T106 447T127 474T141 503Q133 499 118 499Q86 499 63 522T40 583Q40 602 47 619T67 649T97 669T133 677Q154 677 172 669T205 646T228 609T237 559Z"  />
<glyph unicode="&#x201A;" horiz-adv-x="273" d="M237 62Q237 -1 207 -53T122 -143L56 -90Q68 -84 81 -74T106 -50T127 -23T141 6Q133 2 118 2Q86 2 63 25T40 86Q40 105 47 122T67 152T97 172T133 180Q154 180 172 172T205 149T228 112T237 62Z"  />
<glyph unicode="&#x201C;" horiz-adv-x="502" d="M36 474Q36 536 67 588T152 678L217 625Q205 619 192 609T167 585T146 558T132 530Q135 531 141 532T155 533Q188 533 211 510T234 449Q234 429 227 412T206 383T177 363T141 355Q120 355 101 363T68 386T45 424T36 474ZM265 474Q265 536 295 588T380 678L446 625Q434 619 421 609T395 585T374 558T360 530Q364 531 370 532T384 533Q416 533 439 510T462 449Q462 429 455 412T435 383T405 363T369 355Q348 355 330 363T297 386T274 424T265 474Z"  />
<glyph unicode="&#x201D;" horiz-adv-x="502" d="M465 559Q465 496 435 444T350 354L285 407Q297 413 310 423T335 447T356 474T370 503Q362 499 347 499Q314 499 291 522T268 583Q268 602 275 619T295 649T325 669T361 677Q382 677 400 669T433 646T456 609T465 559ZM237 559Q237 496 207 444T122 354L56 407Q68 413 81 423T106 447T127 474T141 503Q133 499 118 499Q86 499 63 522T40 583Q40 602 47 619T67 649T97 669T133 677Q154 677 172 669T205 646T228 609T237 559Z"  />
<glyph unicode="&#x201E;" horiz-adv-x="502" d="M237 62Q237 -1 207 -53T122 -143L56 -90Q68 -84 81 -74T106 -50T127 -23T141 6Q133 2 118 2Q86 2 63 25T40 86Q40 105 47 122T67 152T97 172T133 180Q154 180 172 172T205 149T228 112T237 62ZM465 62Q465 -1 435 -53T350 -143L285 -90Q297 -84 310 -74T335 -50T356 -23T370 6Q362 2 347 2Q314 2 291 25T268 86Q268 105 275 122T295 152T325 172T361 180Q382 180 400 172T433 149T456 112T465 62Z"  />
<glyph unicode="&#x2020;" horiz-adv-x="285" d="M178 521L182 327H102L107 521L18 517V590L107 587L102 677H182L178 587L267 590V517L178 521Z"  />
<glyph unicode="&#x2021;" horiz-adv-x="285" d="M267 517L178 521V338L267 342V269L178 272L182 180H102L106 272L18 269V342L106 338V521L18 517V590L106 587L102 677H182L178 587L267 590V517Z"  />
<glyph unicode="&#x2022;" horiz-adv-x="358" d="M305 242Q305 216 295 194T268 155T229 128T180 118Q154 118 132 128T92 154T65 193T55 242Q55 268 65 290T92 330T131 357T180 367Q206 367 228 357T268 330T295 291T305 242Z"  />
<glyph unicode="&#x2026;" horiz-adv-x="810" d="M231 84Q231 64 224 47T203 17T172 -4T135 -12Q115 -12 98 -5T68 16T47 47T39 84Q39 103 46 120T67 151T98 172T135 180Q154 180 171 173T202 152T223 121T231 84ZM501 84Q501 64 494 47T473 17T443 -4T405 -12Q385 -12 368 -5T338 16T317 47T309 84Q309 103 316 120T337 151T368 172T405 180Q425 180 442 173T473 152T493 121T501 84ZM771 84Q771 64 764 47T743 17T713 -4T675 -12Q655 -12 638 -5T608 16T587 47T579 84Q579 103 586 120T607 151T638 172T675 180Q695 180 712 173T743 152T763 121T771 84Z"  />
<glyph unicode="&#x2030;" horiz-adv-x="894" d="M289 509Q289 474 280 444T252 392T209 356T151 343Q119 343 94 356T50 391T22 444T12 509Q12 544 22 575T50 628T93 664T151 677Q183 677 208 664T252 629T279 575T289 509ZM190 0H130L414 667H475L190 0ZM592 154Q592 119 583 89T555 37T512 1T454 -12Q422 -12 396 1T352 36T325 89T315 154Q315 189 324 220T352 274T396 310T454 323Q486 323 511 310T555 274T582 220T592 154ZM191 509Q191 546 180 564T151 583Q133 583 122 565T111 509Q111 473 122 455T151 437Q169 437 180 455T191 509ZM494 154Q494 192 483 210T454 228Q436 228 425 210T414 154Q414 119 425 101T454 82Q472 82 483 100T494 154ZM881 154Q881 119 872 89T844 37T801 1T743 -12Q711 -12 686 1T642 36T614 89T604 154Q604 189 614 220T642 274T685 310T743 323Q775 323 800 310T844 274T871 220T881 154ZM783 154Q783 192 772 210T743 228Q725 228 714 210T703 154Q703 119 714 101T743 82Q761 82 772 100T783 154Z"  />
<glyph unicode="&#x2039;" horiz-adv-x="267" d="M120 63L30 243L120 420H237L147 243L237 63H120Z"  />
<glyph unicode="&#x203A;" horiz-adv-x="267" d="M147 63H30L120 243L30 420H147L237 243L147 63Z"  />
<glyph unicode="&#x20AC;" horiz-adv-x="488" d="M283 -12Q182 -12 125 50T48 218H13V312H39V333V357H13V451H49Q59 503 78 545T126 616T194 662T283 678Q332 678 366 660T422 615T458 555T480 492L341 441Q333 479 321 500T283 522Q261 522 248 504T227 451H304V357H219V333V312H304V218H227Q234 183 247 164T283 144Q310 144 323 170T342 237L480 187Q473 157 461 122T426 57T369 8T283 -12Z"  />
<glyph unicode="&#x2122;" horiz-adv-x="374" d="M311 447V629L256 447H248L193 629V447H165V667H208L252 510L296 667H339V447H311ZM87 641V447H59V641H17V667H129V641H87Z"  />


</font>
</defs>
</svg>
